<svg width="146" height="10" viewBox="0 0 146 10" fill="none" xmlns="http://www.w3.org/2000/svg">
<path d="M6.63 3.07C6.39 2.13 5.72 1.55 4.66 1.55C3.3 1.55 2.41 2.49 2.41 4.14C2.41 5.78 3.3 6.72 4.66 6.72C5.72 6.72 6.36 6.25 6.65 5.22L5.73 4.96C5.6 5.62 5.25 5.92 4.67 5.92C4.01 5.92 3.48 5.28 3.48 4.13C3.48 2.98 4 2.34 4.67 2.34C5.2 2.34 5.54 2.67 5.67 3.27L6.63 3.07ZM4.51 0.129999C2.27 0.129999 0.5 1.91 0.5 4.15C0.5 6.39 2.27 8.16 4.51 8.16C6.75 8.16 8.53 6.39 8.53 4.15C8.53 1.91 6.75 0.129999 4.51 0.129999ZM4.51 0.499999C6.55 0.499999 8.16 2.11 8.16 4.15C8.16 6.19 6.55 7.79 4.51 7.79C2.47 7.79 0.87 6.19 0.87 4.15C0.87 2.11 2.47 0.499999 4.51 0.499999ZM13.6648 2.63C13.7248 1.72 14.1148 1.25 14.7448 1.25C15.3548 1.25 15.7448 1.64 15.7448 2.31C15.7448 2.94 15.5248 3.34 14.5248 4.3C13.4348 5.35 12.7948 6.19 12.3448 7.13V8.02H17.0748V7.02H13.6448C13.9548 6.4 14.4548 5.84 15.5048 4.9C16.6748 3.81 17.0448 3.17 17.0448 2.32C17.0448 1 16.1348 0.26 14.7648 0.26C13.5148 0.26 12.5848 1 12.4148 2.37L13.6648 2.63ZM20.4872 0.26C18.9472 0.26 18.0772 1.37 18.0772 4.2C18.0772 7.03 18.8972 8.16 20.4672 8.16C22.0272 8.16 22.8872 7.01 22.8872 4.18C22.8872 1.36 22.0272 0.26 20.4872 0.26ZM20.4872 1.25C21.2872 1.25 21.5972 1.94 21.5972 4.19C21.5972 6.43 21.2772 7.17 20.4672 7.17C19.6772 7.17 19.3672 6.44 19.3672 4.19C19.3672 1.93 19.7072 1.25 20.4872 1.25ZM25.1296 2.63C25.1896 1.72 25.5796 1.25 26.2096 1.25C26.8196 1.25 27.2096 1.64 27.2096 2.31C27.2096 2.94 26.9896 3.34 25.9896 4.3C24.8996 5.35 24.2596 6.19 23.8096 7.13V8.02H28.5396V7.02H25.1096C25.4196 6.4 25.9196 5.84 26.9696 4.9C28.1396 3.81 28.5096 3.17 28.5096 2.32C28.5096 1 27.5996 0.26 26.2296 0.26C24.9796 0.26 24.0496 1 23.8796 2.37L25.1296 2.63ZM30.862 2.63C30.922 1.72 31.312 1.25 31.942 1.25C32.552 1.25 32.942 1.64 32.942 2.31C32.942 2.94 32.722 3.34 31.722 4.3C30.632 5.35 29.992 6.19 29.542 7.13V8.02H34.272V7.02H30.842C31.152 6.4 31.652 5.84 32.702 4.9C33.872 3.81 34.242 3.17 34.242 2.32C34.242 1 33.332 0.26 31.962 0.26C30.712 0.26 29.782 1 29.612 2.37L30.862 2.63ZM43.646 2.06C43.236 0.77 42.276 0.129999 40.916 0.129999C39.246 0.129999 38.326 1.08 38.326 2.25C38.326 3.44 38.856 4.09 40.506 4.58L40.906 4.7C42.176 5.06 42.416 5.37 42.416 6.04C42.416 6.71 41.956 7.15 40.936 7.15C40.116 7.15 39.526 6.65 39.326 5.75L38.036 6.16C38.406 7.51 39.456 8.17 40.966 8.17C42.826 8.17 43.766 7.23 43.766 5.87C43.766 4.73 43.266 4.06 41.496 3.58L41.086 3.46C39.966 3.15 39.666 2.84 39.666 2.16C39.666 1.54 40.136 1.15 40.956 1.15C41.676 1.15 42.136 1.58 42.336 2.42L43.646 2.06ZM46.3278 0.12H45.0678V8.02H46.3278V4.44C46.6678 3.87 47.1678 3.5 47.6078 3.5C48.0978 3.5 48.3678 3.78 48.3678 4.42V8.02H49.6578V4.06C49.6578 3.01 48.9978 2.42 48.0878 2.42C47.3978 2.42 46.7678 2.84 46.3278 3.46V0.12ZM52.4995 2.53H51.2395V8.02H52.4995V2.53ZM52.5495 0.26H51.1895V1.55H52.5495V0.26ZM55.3108 2.53H54.1108V8.02H55.3508V4.42C55.6308 3.86 56.1108 3.49 56.5408 3.49C56.9808 3.49 57.2208 3.78 57.2208 4.41V8.02H58.4608V4.42C58.7208 3.87 59.1808 3.49 59.6108 3.49C60.1008 3.49 60.3708 3.79 60.3708 4.41V8.02H61.6308V4.06C61.6308 3 61.0208 2.41 60.1308 2.41C59.4208 2.41 58.8208 2.83 58.3908 3.48C58.2508 2.84 57.7708 2.41 57.0408 2.41C56.3308 2.41 55.7408 2.83 55.3108 3.49V2.53ZM64.2421 4.23C64.3521 3.6 64.7721 3.27 65.2921 3.27C65.9521 3.27 66.2421 3.55 66.2421 4.24V4.55C65.6821 4.57 65.1421 4.62 64.6721 4.71C63.4821 4.94 62.8821 5.56 62.8821 6.52C62.8821 7.52 63.5621 8.15 64.5721 8.15C65.2721 8.15 65.9121 7.86 66.3021 7.3C66.3321 7.62 66.3521 7.78 66.3921 8.02H67.5521C67.5021 7.56 67.4621 7.04 67.4621 6.4V4.22C67.4621 3 66.7521 2.4 65.3321 2.4C64.1421 2.4 63.3421 2.92 63.0621 3.91L64.2421 4.23ZM66.2421 6.35C65.9221 6.95 65.4421 7.25 64.9621 7.25C64.3921 7.25 64.0821 6.94 64.0821 6.42C64.0821 5.93 64.3921 5.63 64.9821 5.49C65.3221 5.41 65.7121 5.34 66.2421 5.33V6.35ZM70.2924 0.12H69.0424V8.02H69.9424L70.1924 7.17C70.5124 7.82 71.0224 8.16 71.7324 8.16C72.8924 8.16 73.8824 7.13 73.8824 5.25C73.8824 3.37 72.9924 2.42 71.8024 2.42C71.2124 2.42 70.6424 2.75 70.2924 3.32V0.12ZM70.2924 4.34C70.5724 3.71 71.0024 3.4 71.4724 3.4C72.1024 3.4 72.5924 3.97 72.5924 5.27C72.5924 6.6 72.0624 7.19 71.4024 7.19C70.9424 7.19 70.5424 6.85 70.2924 6.27V4.34ZM79.7352 2.53H78.4752V6.14C78.1952 6.68 77.6752 7.08 77.2052 7.08C76.7152 7.08 76.4352 6.8 76.4352 6.18V2.53H75.1452V6.54C75.1452 7.62 75.8452 8.16 76.7352 8.16C77.4652 8.16 78.1252 7.73 78.5152 7.07V8.02H79.7352V2.53ZM85.6884 0.26H84.3284V8.02H85.6884V0.26ZM92.8911 0.26H86.9311V1.35H89.2211V8.02H90.5811V1.35H92.8911V0.26ZM102.855 0.26H101.595V5.32C101.595 6.59 100.975 7.13 99.9547 7.13C98.9247 7.13 98.3147 6.59 98.3147 5.32V0.26H96.9647V5.34C96.9647 7.23 98.1247 8.16 99.9247 8.16C101.715 8.16 102.855 7.2 102.855 5.34V0.26ZM105.8 2.53H104.58V8.02H105.84V4.42C106.18 3.85 106.68 3.49 107.12 3.49C107.61 3.49 107.88 3.78 107.88 4.41V8.02H109.17V4.06C109.17 3 108.51 2.41 107.6 2.41C106.89 2.41 106.24 2.84 105.8 3.49V2.53ZM112.011 2.53H110.751V8.02H112.011V2.53ZM112.061 0.26H110.701V1.55H112.061V0.26ZM117.933 2.53H116.703L116.113 4.79C115.903 5.56 115.763 6.21 115.563 6.96H115.443C115.263 6.2 115.133 5.57 114.943 4.82L114.373 2.53H113.023L114.723 8.02H116.213L117.933 2.53ZM123.565 5.55V5.29C123.565 3.43 122.515 2.41 121.115 2.41C119.635 2.41 118.625 3.52 118.625 5.31C118.625 7.11 119.585 8.16 121.225 8.16C122.445 8.16 123.195 7.62 123.535 6.57L122.395 6.24C122.205 6.96 121.805 7.28 121.235 7.28C120.325 7.28 119.865 6.59 119.855 5.55H123.565ZM119.875 4.72C119.935 3.84 120.375 3.28 121.135 3.28C121.885 3.28 122.275 3.8 122.335 4.72H119.875ZM127.713 2.41C126.973 2.41 126.403 2.8 126.013 3.88V2.53H124.833V8.02H126.073V4.98C126.423 4.02 126.973 3.59 127.633 3.59L127.713 2.41ZM132.709 3.81C132.409 2.92 131.709 2.41 130.559 2.41C129.219 2.41 128.499 3.09 128.499 3.97C128.499 4.89 128.919 5.32 130.109 5.64L130.569 5.77C131.439 6.02 131.629 6.14 131.629 6.59C131.629 6.99 131.349 7.3 130.629 7.3C130.099 7.3 129.659 7 129.479 6.38L128.309 6.79C128.659 7.75 129.439 8.16 130.599 8.16C132.089 8.16 132.819 7.45 132.819 6.47C132.819 5.58 132.369 5.13 131.119 4.8L130.659 4.68C129.859 4.47 129.679 4.29 129.679 3.86C129.679 3.53 129.999 3.27 130.539 3.27C131.029 3.27 131.379 3.56 131.519 4.15L132.709 3.81ZM135.331 2.53H134.071V8.02H135.331V2.53ZM135.381 0.26H134.021V1.55H135.381V0.26ZM138.443 0.74L137.203 1.02V2.53H136.383V3.45H137.203V6.69C137.203 7.7 137.693 8.15 138.733 8.15C139.063 8.15 139.363 8.14 139.713 8.09L139.763 7.19C139.533 7.24 139.333 7.25 139.123 7.25C138.663 7.25 138.443 7.01 138.443 6.46V3.45H139.673V2.53H138.443V0.74ZM145.052 2.53H143.802L143.172 4.81C142.992 5.45 142.852 6.01 142.682 6.63H142.582C142.422 5.99 142.302 5.46 142.122 4.83L141.472 2.53H140.142L142.002 7.92L141.922 8.16C141.732 8.74 141.392 9.01 140.882 9.01C140.662 9.01 140.452 8.99 140.182 8.94L140.232 9.9C140.492 9.94 140.702 9.95 140.912 9.95C142.032 9.95 142.692 9.48 143.122 8.22L145.052 2.53Z" fill="#868E96"/>
</svg>
